<svg id="Calque_1" data-name="Calque 1" xmlns="http://www.w3.org/2000/svg" viewBox="0 0 500 100"><defs><style>.cls-1{fill:#2a4876;}.cls-2{fill:none;stroke:#2a4876;stroke-linecap:round;stroke-miterlimit:3;stroke-width:0.75px;}</style></defs><title>cvline_blue</title><path class="cls-1" d="M132.81,17.08a26.47,26.47,0,0,1,5.63.53,13.11,13.11,0,0,1,4,1.51,6.49,6.49,0,0,1,2.36,2.25,5.25,5.25,0,0,1,.8,2.79,4.09,4.09,0,0,1-.41,1.85,4,4,0,0,1-1.16,1.4,5.92,5.92,0,0,1-1.74.88,7.64,7.64,0,0,1-2.17.3,11.1,11.1,0,0,0-.39-2.92,7.41,7.41,0,0,0-1.26-2.62,6.45,6.45,0,0,0-2.28-1.87,7.54,7.54,0,0,0-3.48-.73,13,13,0,0,0-6.07,1.31,10.4,10.4,0,0,0-4.06,3.82,18,18,0,0,0-2.28,6.21,44.83,44.83,0,0,0-.71,8.41,37.81,37.81,0,0,0,.73,7.73,18.31,18.31,0,0,0,2.34,6,11.72,11.72,0,0,0,4.08,3.91,12.14,12.14,0,0,0,6,1.37,16.52,16.52,0,0,0,4.08-.45,13.43,13.43,0,0,0,3.14-1.18,11.79,11.79,0,0,0,2.38-1.72,14.51,14.51,0,0,0,1.85-2,2.86,2.86,0,0,1,.86.93,3.08,3.08,0,0,1,.34,1.54,4.4,4.4,0,0,1-.82,2.45A7.73,7.73,0,0,1,142,61.08a15.57,15.57,0,0,1-4.21,1.67,24.46,24.46,0,0,1-6.07.67,19.69,19.69,0,0,1-8.31-1.66,16.39,16.39,0,0,1-6-4.72,21.24,21.24,0,0,1-3.65-7.34,34.48,34.48,0,0,1-1.23-9.5,32.23,32.23,0,0,1,1.29-9.38,20.84,20.84,0,0,1,3.84-7.3A17.43,17.43,0,0,1,124,18.77,21.52,21.52,0,0,1,132.81,17.08Z"/><path class="cls-1" d="M172,62.79,158.43,23.71a8.32,8.32,0,0,0-.76-1.63,3.08,3.08,0,0,0-.92-1,3.53,3.53,0,0,0-1.2-.52,8.1,8.1,0,0,0-1.59-.15h-.84V17.72h17.35v2.66H169a4.67,4.67,0,0,0-2.85.73,2.66,2.66,0,0,0-1,2.28,5.24,5.24,0,0,0,.13,1.1c.1.36.24.77.41,1.24l6.94,20.51c.62,1.88,1.16,3.69,1.61,5.45s.86,3.38,1.22,4.9c.33-1.52.71-3.13,1.16-4.83s1-3.55,1.74-5.52l7-20.06a13.71,13.71,0,0,0,.4-1.48,6.11,6.11,0,0,0,.15-1.24,2.65,2.65,0,0,0-1-2.35,5.48,5.48,0,0,0-3.13-.73h-1.44V17.72h15.38v2.66h-1.21a5.7,5.7,0,0,0-1.59.2,2.66,2.66,0,0,0-1.2.71,5.51,5.51,0,0,0-1,1.5,25.71,25.71,0,0,0-1,2.49l-13,37.51Z"/><path class="cls-1" d="M225.37,62.79V60.15h.8a11.42,11.42,0,0,0,2-.15,4.27,4.27,0,0,0,1.66-.64A3,3,0,0,0,230.93,58a5.78,5.78,0,0,0,.41-2.36V24.92a5.77,5.77,0,0,0-.41-2.37,3.08,3.08,0,0,0-1.09-1.37,4.13,4.13,0,0,0-1.66-.65,13.72,13.72,0,0,0-2-.15h-.8V17.72h18.38v2.66h-.84a14,14,0,0,0-2,.15,3.89,3.89,0,0,0-1.66.61,3.06,3.06,0,0,0-1.11,1.31,4.92,4.92,0,0,0-.41,2.21v35h12.45a5.08,5.08,0,0,0,2.41-.52,4.82,4.82,0,0,0,1.65-1.33,6.06,6.06,0,0,0,1-1.82,9.75,9.75,0,0,0,.49-2l.63-4.73h3.28l-.43,13.57Z"/><path class="cls-1" d="M270.12,62.79V60.15h.8a11.61,11.61,0,0,0,2-.15,4.22,4.22,0,0,0,1.65-.64,3,3,0,0,0,1.1-1.38,6,6,0,0,0,.4-2.36V24.92a6,6,0,0,0-.4-2.37,3.09,3.09,0,0,0-1.1-1.37,4.08,4.08,0,0,0-1.65-.65,14,14,0,0,0-2-.15h-.8V17.72H288.5v2.66h-.83a14.42,14.42,0,0,0-2,.15,4,4,0,0,0-1.65.65,3.16,3.16,0,0,0-1.1,1.37,5.77,5.77,0,0,0-.41,2.37v30.7A5.78,5.78,0,0,0,282.9,58a3.08,3.08,0,0,0,1.1,1.38,4.16,4.16,0,0,0,1.65.64,11.92,11.92,0,0,0,2,.15h.83v2.64Z"/><path class="cls-1" d="M332.23,62.79,308.56,26.42v29.2A5.78,5.78,0,0,0,309,58a3.33,3.33,0,0,0,1.12,1.38,4,4,0,0,0,1.63.64,11.92,11.92,0,0,0,2,.15h.84v2.64H298.73V60.15h.79a11.61,11.61,0,0,0,2-.15,4.16,4.16,0,0,0,1.65-.64,3,3,0,0,0,1.1-1.38,5.78,5.78,0,0,0,.41-2.36v-31a5.07,5.07,0,0,0-.41-2.21,3,3,0,0,0-1.12-1.31,3.85,3.85,0,0,0-1.65-.61,14.13,14.13,0,0,0-2-.15h-.79V17.72h11.55l22.61,34.9v-28a4.77,4.77,0,0,0-.43-2.21,3.06,3.06,0,0,0-1.11-1.31,3.94,3.94,0,0,0-1.66-.61,14.1,14.1,0,0,0-2-.15h-.82V17.72h15.83v2.66h-.8a14.19,14.19,0,0,0-2,.15,4,4,0,0,0-1.65.65,3.2,3.2,0,0,0-1.12,1.37,6.17,6.17,0,0,0-.38,2.37V62.79Z"/><path class="cls-1" d="M364.7,59.66h12.17a7,7,0,0,0,2.56-.41,5.05,5.05,0,0,0,1.78-1.14,4.85,4.85,0,0,0,1.09-1.65,8.25,8.25,0,0,0,.58-2l.43-2.7h3.29l-.43,11H352.33V60.15h.79a14.2,14.2,0,0,0,2-.13,4.26,4.26,0,0,0,1.65-.58,3.12,3.12,0,0,0,1.12-1.28,5.27,5.27,0,0,0,.41-2.24v-31a5.77,5.77,0,0,0-.41-2.37,3,3,0,0,0-1.1-1.37,4,4,0,0,0-1.65-.65,14,14,0,0,0-2-.15h-.79V17.72h31.8l.32,11h-3.26l-.32-2.71a8.27,8.27,0,0,0-.48-2,4.94,4.94,0,0,0-1-1.66,4.61,4.61,0,0,0-1.67-1.11,6.54,6.54,0,0,0-2.43-.41H364.7V37.67h15.22v3.09H364.7Z"/><path class="cls-1" d="M179.2,73.06l-3.95,9.77H174l-4-9.77h1.21l3.39,8.53L178,73.06Z"/><path class="cls-1" d="M187.12,72.94a4.7,4.7,0,0,1,3.58,1.46,5.23,5.23,0,0,1,0,7.08,5.08,5.08,0,0,1-7.17,0,5.26,5.26,0,0,1,0-7.08A4.73,4.73,0,0,1,187.12,72.94Zm0,8.93a3.68,3.68,0,0,0,2.81-1.14,4.23,4.23,0,0,0,0-5.58,4,4,0,0,0-5.62,0,4.2,4.2,0,0,0,0,5.58A3.67,3.67,0,0,0,187.12,81.87Z"/><path class="cls-1" d="M203.13,74.12h-3.42v8.71h-1.09V74.12H195.2V73.06h7.93Z"/><path class="cls-1" d="M208,82.83h-1.09V73.06h4.68a3.42,3.42,0,0,1,2.38.82,2.84,2.84,0,0,1,.91,2.23,2.47,2.47,0,0,1-1.53,2.49,3.76,3.76,0,0,1-.84.28l2.58,4h-1.31l-2.36-3.75H208ZM208,78h3.4a2.29,2.29,0,0,0,2.14-1,1.69,1.69,0,0,0,.24-1,1.81,1.81,0,0,0-.64-1.46,2.49,2.49,0,0,0-1.68-.56H208Z"/><path class="cls-1" d="M220.18,74.12V77.4h5.45v1.08h-5.45v3.28h6.1v1.07h-7.2V73.06h7.2v1.06Z"/><path class="cls-1" d="M240.24,81.87a3.15,3.15,0,0,0,3-2h1.16a4.3,4.3,0,0,1-1.61,2.19A4.62,4.62,0,0,1,240,83a4.46,4.46,0,0,1-3.48-1.48A5.09,5.09,0,0,1,235.25,78a5.19,5.19,0,0,1,1.25-3.56A4.47,4.47,0,0,1,240,72.94a4.75,4.75,0,0,1,2.81.85A4.3,4.3,0,0,1,244.4,76h-1.16a3.24,3.24,0,0,0-1.18-1.43,3.1,3.1,0,0,0-1.82-.54,4.49,4.49,0,0,0-1.76.3,3.1,3.1,0,0,0-1.16.84,4.5,4.5,0,0,0,0,5.58A3.68,3.68,0,0,0,240.24,81.87Z"/><path class="cls-1" d="M256.43,73.06l-4,9.77h-1.29l-3.95-9.77h1.21l3.39,8.53,3.39-8.53Z"/><path class="cls-1" d="M266.59,74.12V77.4H272v1.08h-5.45v3.28h6.1v1.07h-7.2V73.06h7.2v1.06Z"/><path class="cls-1" d="M285.24,73.06v9.77H284l-6.05-8.26v8.26h-1.1V73.06h1.29l6,8.23V73.06Z"/><path class="cls-1" d="M296.54,73.06v8.7h5.35v1.07h-6.45V73.06Z"/><path class="cls-1" d="M306.74,82.83h-1.09V73.06h1.09Z"/><path class="cls-1" d="M319.92,73.06v9.77h-1.28l-6.06-8.26v8.26h-1.1V73.06h1.29l6,8.23V73.06Z"/><path class="cls-1" d="M325.74,74.12V77.4h5.45v1.08h-5.45v3.28h6.1v1.07h-7.2V73.06h7.2v1.06Z"/><path class="cls-2" d="M51.83,80h97.94"/><path class="cls-2" d="M350.48,80h97.94"/></svg>