<svg xmlns="http://www.w3.org/2000/svg" width="375" viewBox="0 0 375 375" height="375" version="1.0"><g fill="#2A4876"><g><g><path d="M 17.359375 -33.265625 C 18.929688 -33.265625 20.296875 -33.132812 21.453125 -32.875 C 22.609375 -32.613281 23.570312 -32.25 24.34375 -31.78125 C 25.113281 -31.320312 25.6875 -30.773438 26.0625 -30.140625 C 26.445312 -29.515625 26.640625 -28.835938 26.640625 -28.109375 C 26.640625 -27.609375 26.539062 -27.160156 26.34375 -26.765625 C 26.144531 -26.367188 25.863281 -26.03125 25.5 -25.75 C 25.144531 -25.476562 24.722656 -25.265625 24.234375 -25.109375 C 23.742188 -24.960938 23.21875 -24.890625 22.65625 -24.890625 C 22.65625 -25.609375 22.5625 -26.316406 22.375 -27.015625 C 22.1875 -27.722656 21.878906 -28.359375 21.453125 -28.921875 C 21.023438 -29.484375 20.472656 -29.9375 19.796875 -30.28125 C 19.117188 -30.632812 18.273438 -30.8125 17.265625 -30.8125 C 15.535156 -30.8125 14.0625 -30.492188 12.84375 -29.859375 C 11.632812 -29.222656 10.648438 -28.296875 9.890625 -27.078125 C 9.128906 -25.859375 8.578125 -24.351562 8.234375 -22.5625 C 7.890625 -20.78125 7.71875 -18.738281 7.71875 -16.4375 C 7.71875 -14.394531 7.894531 -12.519531 8.25 -10.8125 C 8.613281 -9.101562 9.179688 -7.640625 9.953125 -6.421875 C 10.734375 -5.203125 11.722656 -4.253906 12.921875 -3.578125 C 14.128906 -2.910156 15.578125 -2.578125 17.265625 -2.578125 C 18.390625 -2.578125 19.378906 -2.6875 20.234375 -2.90625 C 21.097656 -3.125 21.859375 -3.410156 22.515625 -3.765625 C 23.171875 -4.128906 23.75 -4.546875 24.25 -5.015625 C 24.757812 -5.484375 25.207031 -5.972656 25.59375 -6.484375 C 25.84375 -6.316406 26.050781 -6.09375 26.21875 -5.8125 C 26.382812 -5.53125 26.46875 -5.15625 26.46875 -4.6875 C 26.46875 -4.101562 26.269531 -3.507812 25.875 -2.90625 C 25.476562 -2.300781 24.875 -1.75 24.0625 -1.25 C 23.257812 -0.757812 22.238281 -0.351562 21 -0.03125 C 19.757812 0.289062 18.285156 0.453125 16.578125 0.453125 C 14.285156 0.453125 12.269531 0.0507812 10.53125 -0.75 C 8.800781 -1.5625 7.347656 -2.707031 6.171875 -4.1875 C 5.003906 -5.675781 4.117188 -7.457031 3.515625 -9.53125 C 2.921875 -11.613281 2.625 -13.914062 2.625 -16.4375 C 2.625 -18.925781 2.9375 -21.203125 3.5625 -23.265625 C 4.195312 -25.328125 5.128906 -27.097656 6.359375 -28.578125 C 7.585938 -30.054688 9.125 -31.207031 10.96875 -32.03125 C 12.8125 -32.851562 14.941406 -33.265625 17.359375 -33.265625 Z M 17.359375 -33.265625" transform="translate(85.522 195.055)"/></g></g></g><g fill="#2A4876"><g><g><path d="M 13.765625 0 L 3.859375 -28.4375 C 3.691406 -28.914062 3.507812 -29.3125 3.3125 -29.625 C 3.125 -29.945312 2.898438 -30.195312 2.640625 -30.375 C 2.390625 -30.550781 2.097656 -30.675781 1.765625 -30.75 C 1.441406 -30.820312 1.054688 -30.859375 0.609375 -30.859375 L 0 -30.859375 L 0 -32.796875 L 12.625 -32.796875 L 12.625 -30.859375 L 11.578125 -30.859375 C 10.648438 -30.859375 9.957031 -30.679688 9.5 -30.328125 C 9.039062 -29.984375 8.8125 -29.429688 8.8125 -28.671875 C 8.8125 -28.410156 8.84375 -28.144531 8.90625 -27.875 C 8.976562 -27.613281 9.078125 -27.3125 9.203125 -26.96875 L 14.25 -12.046875 C 14.707031 -10.679688 15.097656 -9.359375 15.421875 -8.078125 C 15.753906 -6.804688 16.050781 -5.617188 16.3125 -4.515625 C 16.550781 -5.617188 16.832031 -6.789062 17.15625 -8.03125 C 17.488281 -9.269531 17.910156 -10.609375 18.421875 -12.046875 L 23.484375 -26.640625 C 23.609375 -27.015625 23.707031 -27.375 23.78125 -27.71875 C 23.851562 -28.0625 23.890625 -28.363281 23.890625 -28.625 C 23.890625 -29.414062 23.640625 -29.984375 23.140625 -30.328125 C 22.640625 -30.679688 21.878906 -30.859375 20.859375 -30.859375 L 19.8125 -30.859375 L 19.8125 -32.796875 L 31 -32.796875 L 31 -30.859375 L 30.125 -30.859375 C 29.675781 -30.859375 29.289062 -30.8125 28.96875 -30.71875 C 28.644531 -30.632812 28.351562 -30.460938 28.09375 -30.203125 C 27.832031 -29.941406 27.585938 -29.578125 27.359375 -29.109375 C 27.140625 -28.648438 26.898438 -28.046875 26.640625 -27.296875 L 17.140625 0 Z M 13.765625 0" transform="translate(117.66 195.055)"/></g></g></g><g fill="#2A4876"><g><g><path d="M 1.75 0 L 1.75 -1.921875 L 2.328125 -1.921875 C 2.859375 -1.921875 3.347656 -1.957031 3.796875 -2.03125 C 4.253906 -2.113281 4.65625 -2.269531 5 -2.5 C 5.34375 -2.726562 5.609375 -3.0625 5.796875 -3.5 C 5.992188 -3.9375 6.09375 -4.507812 6.09375 -5.21875 L 6.09375 -27.5625 C 6.09375 -28.28125 5.992188 -28.851562 5.796875 -29.28125 C 5.609375 -29.71875 5.34375 -30.050781 5 -30.28125 C 4.65625 -30.519531 4.253906 -30.675781 3.796875 -30.75 C 3.347656 -30.820312 2.859375 -30.859375 2.328125 -30.859375 L 1.75 -30.859375 L 1.75 -32.796875 L 15.125 -32.796875 L 15.125 -30.859375 L 14.515625 -30.859375 C 14.003906 -30.859375 13.519531 -30.820312 13.0625 -30.75 C 12.601562 -30.6875 12.203125 -30.539062 11.859375 -30.3125 C 11.515625 -30.09375 11.242188 -29.773438 11.046875 -29.359375 C 10.847656 -28.953125 10.75 -28.414062 10.75 -27.75 L 10.75 -2.28125 L 19.8125 -2.28125 C 20.5 -2.28125 21.082031 -2.40625 21.5625 -2.65625 C 22.050781 -2.90625 22.453125 -3.226562 22.765625 -3.625 C 23.078125 -4.019531 23.316406 -4.460938 23.484375 -4.953125 C 23.660156 -5.453125 23.78125 -5.945312 23.84375 -6.4375 L 24.296875 -9.875 L 26.6875 -9.875 L 26.375 0 Z M 1.75 0" transform="translate(168.481 195.055)"/></g></g></g><g fill="#2A4876"><g><g><path d="M 1.75 0 L 1.75 -1.921875 L 2.328125 -1.921875 C 2.859375 -1.921875 3.347656 -1.957031 3.796875 -2.03125 C 4.253906 -2.113281 4.65625 -2.269531 5 -2.5 C 5.34375 -2.726562 5.609375 -3.0625 5.796875 -3.5 C 5.992188 -3.9375 6.09375 -4.507812 6.09375 -5.21875 L 6.09375 -27.5625 C 6.09375 -28.28125 5.992188 -28.851562 5.796875 -29.28125 C 5.609375 -29.71875 5.34375 -30.050781 5 -30.28125 C 4.65625 -30.519531 4.253906 -30.675781 3.796875 -30.75 C 3.347656 -30.820312 2.859375 -30.859375 2.328125 -30.859375 L 1.75 -30.859375 L 1.75 -32.796875 L 15.125 -32.796875 L 15.125 -30.859375 L 14.515625 -30.859375 C 14.003906 -30.859375 13.515625 -30.820312 13.046875 -30.75 C 12.585938 -30.675781 12.1875 -30.519531 11.84375 -30.28125 C 11.507812 -30.050781 11.242188 -29.71875 11.046875 -29.28125 C 10.847656 -28.851562 10.75 -28.28125 10.75 -27.5625 L 10.75 -5.21875 C 10.75 -4.507812 10.847656 -3.9375 11.046875 -3.5 C 11.242188 -3.0625 11.507812 -2.726562 11.84375 -2.5 C 12.1875 -2.269531 12.585938 -2.113281 13.046875 -2.03125 C 13.515625 -1.957031 14.003906 -1.921875 14.515625 -1.921875 L 15.125 -1.921875 L 15.125 0 Z M 1.75 0" transform="translate(201.045 195.055)"/></g></g></g><g fill="#2A4876"><g><g><path d="M 26.125 0 L 8.90625 -26.46875 L 8.90625 -5.21875 C 8.90625 -4.507812 9.003906 -3.9375 9.203125 -3.5 C 9.410156 -3.0625 9.679688 -2.726562 10.015625 -2.5 C 10.347656 -2.269531 10.742188 -2.113281 11.203125 -2.03125 C 11.671875 -1.957031 12.160156 -1.921875 12.671875 -1.921875 L 13.28125 -1.921875 L 13.28125 0 L 1.75 0 L 1.75 -1.921875 L 2.328125 -1.921875 C 2.859375 -1.921875 3.347656 -1.957031 3.796875 -2.03125 C 4.253906 -2.113281 4.65625 -2.269531 5 -2.5 C 5.34375 -2.726562 5.609375 -3.0625 5.796875 -3.5 C 5.992188 -3.9375 6.09375 -4.507812 6.09375 -5.21875 L 6.09375 -27.75 C 6.09375 -28.414062 5.992188 -28.953125 5.796875 -29.359375 C 5.597656 -29.773438 5.328125 -30.09375 4.984375 -30.3125 C 4.640625 -30.539062 4.238281 -30.6875 3.78125 -30.75 C 3.320312 -30.820312 2.835938 -30.859375 2.328125 -30.859375 L 1.75 -30.859375 L 1.75 -32.796875 L 10.15625 -32.796875 L 26.609375 -7.40625 L 26.609375 -27.75 C 26.609375 -28.414062 26.503906 -28.953125 26.296875 -29.359375 C 26.097656 -29.773438 25.828125 -30.09375 25.484375 -30.3125 C 25.140625 -30.539062 24.738281 -30.6875 24.28125 -30.75 C 23.820312 -30.820312 23.335938 -30.859375 22.828125 -30.859375 L 22.234375 -30.859375 L 22.234375 -32.796875 L 33.75 -32.796875 L 33.75 -30.859375 L 33.171875 -30.859375 C 32.648438 -30.859375 32.160156 -30.820312 31.703125 -30.75 C 31.242188 -30.675781 30.84375 -30.519531 30.5 -30.28125 C 30.15625 -30.050781 29.882812 -29.71875 29.6875 -29.28125 C 29.5 -28.851562 29.40625 -28.28125 29.40625 -27.5625 L 29.40625 0 Z M 26.125 0" transform="translate(221.859 195.055)"/></g></g></g><g fill="#2A4876"><g><g><path d="M 10.75 -2.28125 L 19.609375 -2.28125 C 20.335938 -2.28125 20.957031 -2.378906 21.46875 -2.578125 C 21.988281 -2.785156 22.421875 -3.0625 22.765625 -3.40625 C 23.109375 -3.75 23.375 -4.148438 23.5625 -4.609375 C 23.757812 -5.066406 23.898438 -5.550781 23.984375 -6.0625 L 24.296875 -8.03125 L 26.6875 -8.03125 L 26.375 0 L 1.75 0 L 1.75 -1.921875 L 2.328125 -1.921875 C 2.835938 -1.921875 3.320312 -1.953125 3.78125 -2.015625 C 4.238281 -2.085938 4.640625 -2.226562 4.984375 -2.4375 C 5.328125 -2.65625 5.597656 -2.96875 5.796875 -3.375 C 5.992188 -3.789062 6.09375 -4.332031 6.09375 -5 L 6.09375 -27.5625 C 6.09375 -28.28125 5.992188 -28.851562 5.796875 -29.28125 C 5.609375 -29.71875 5.34375 -30.050781 5 -30.28125 C 4.65625 -30.519531 4.253906 -30.675781 3.796875 -30.75 C 3.347656 -30.820312 2.859375 -30.859375 2.328125 -30.859375 L 1.75 -30.859375 L 1.75 -32.796875 L 24.890625 -32.796875 L 25.125 -24.765625 L 22.75 -24.765625 L 22.515625 -26.734375 C 22.460938 -27.242188 22.347656 -27.726562 22.171875 -28.1875 C 22.003906 -28.644531 21.757812 -29.046875 21.4375 -29.390625 C 21.113281 -29.734375 20.707031 -30.003906 20.21875 -30.203125 C 19.726562 -30.398438 19.140625 -30.5 18.453125 -30.5 L 10.75 -30.5 L 10.75 -18.28125 L 21.828125 -18.28125 L 21.828125 -16.03125 L 10.75 -16.03125 Z M 10.75 -2.28125" transform="translate(260.86 195.055)"/></g></g></g><g fill="#2A4876"><g><g><path d="M 6.71875 -7.109375 L 3.84375 0 L 2.90625 0 L 0.03125 -7.109375 L 0.90625 -7.109375 L 3.375 -0.90625 L 5.84375 -7.109375 Z M 6.71875 -7.109375" transform="translate(129.919 209.637)"/></g></g></g><g fill="#2A4876"><g><g><path d="M 4.03125 -7.203125 C 5.09375 -7.203125 5.960938 -6.847656 6.640625 -6.140625 C 7.304688 -5.453125 7.640625 -4.59375 7.640625 -3.5625 C 7.640625 -2.53125 7.304688 -1.671875 6.640625 -0.984375 C 5.960938 -0.265625 5.09375 0.09375 4.03125 0.09375 C 2.96875 0.09375 2.097656 -0.265625 1.421875 -0.984375 C 0.753906 -1.671875 0.421875 -2.53125 0.421875 -3.5625 C 0.421875 -4.59375 0.753906 -5.453125 1.421875 -6.140625 C 2.097656 -6.847656 2.96875 -7.203125 4.03125 -7.203125 Z M 4.03125 -0.703125 C 4.875 -0.703125 5.554688 -0.976562 6.078125 -1.53125 C 6.585938 -2.0625 6.84375 -2.738281 6.84375 -3.5625 C 6.84375 -4.382812 6.585938 -5.0625 6.078125 -5.59375 C 5.554688 -6.144531 4.875 -6.421875 4.03125 -6.421875 C 3.1875 -6.421875 2.503906 -6.144531 1.984375 -5.59375 C 1.472656 -5.0625 1.21875 -4.382812 1.21875 -3.5625 C 1.21875 -2.738281 1.472656 -2.0625 1.984375 -1.53125 C 2.503906 -0.976562 3.1875 -0.703125 4.03125 -0.703125 Z M 4.03125 -0.703125" transform="translate(138.366 209.637)"/></g></g></g><g fill="#2A4876"><g><g><path d="M 5.921875 -6.34375 L 3.4375 -6.34375 L 3.4375 0 L 2.640625 0 L 2.640625 -6.34375 L 0.15625 -6.34375 L 0.15625 -7.109375 L 5.921875 -7.109375 Z M 5.921875 -6.34375" transform="translate(148.124 209.637)"/></g></g></g><g fill="#2A4876"><g><g><path d="M 1.671875 0 L 0.875 0 L 0.875 -7.109375 L 4.28125 -7.109375 C 5 -7.109375 5.578125 -6.910156 6.015625 -6.515625 C 6.453125 -6.117188 6.671875 -5.578125 6.671875 -4.890625 C 6.671875 -4.003906 6.300781 -3.398438 5.5625 -3.078125 C 5.351562 -2.984375 5.148438 -2.914062 4.953125 -2.875 L 6.828125 0 L 5.875 0 L 4.15625 -2.734375 L 1.671875 -2.734375 Z M 1.671875 -3.5 L 4.140625 -3.5 C 4.898438 -3.5 5.421875 -3.734375 5.703125 -4.203125 C 5.816406 -4.378906 5.875 -4.609375 5.875 -4.890625 C 5.875 -5.335938 5.71875 -5.691406 5.40625 -5.953125 C 5.09375 -6.222656 4.6875 -6.359375 4.1875 -6.359375 L 1.671875 -6.359375 Z M 1.671875 -3.5" transform="translate(155.894 209.637)"/></g></g></g><g fill="#2A4876"><g><g><path d="M 1.671875 -6.34375 L 1.671875 -3.953125 L 5.640625 -3.953125 L 5.640625 -3.171875 L 1.671875 -3.171875 L 1.671875 -0.78125 L 6.109375 -0.78125 L 6.109375 0 L 0.875 0 L 0.875 -7.109375 L 6.109375 -7.109375 L 6.109375 -6.34375 Z M 1.671875 -6.34375" transform="translate(164.782 209.637)"/></g></g></g><g fill="#2A4876"><g><g><path d="M 4.046875 -0.703125 C 4.554688 -0.703125 5 -0.828125 5.375 -1.078125 C 5.757812 -1.335938 6.046875 -1.6875 6.234375 -2.125 L 7.078125 -2.125 C 6.847656 -1.457031 6.457031 -0.925781 5.90625 -0.53125 C 5.332031 -0.113281 4.648438 0.09375 3.859375 0.09375 C 2.816406 0.09375 1.972656 -0.265625 1.328125 -0.984375 C 0.722656 -1.660156 0.421875 -2.515625 0.421875 -3.546875 C 0.421875 -4.585938 0.722656 -5.453125 1.328125 -6.140625 C 1.972656 -6.847656 2.816406 -7.203125 3.859375 -7.203125 C 4.648438 -7.203125 5.332031 -6.992188 5.90625 -6.578125 C 6.457031 -6.191406 6.847656 -5.660156 7.078125 -4.984375 L 6.234375 -4.984375 C 6.046875 -5.421875 5.757812 -5.769531 5.375 -6.03125 C 5 -6.289062 4.554688 -6.421875 4.046875 -6.421875 C 3.535156 -6.421875 3.109375 -6.347656 2.765625 -6.203125 C 2.429688 -6.054688 2.148438 -5.851562 1.921875 -5.59375 C 1.453125 -5.070312 1.21875 -4.394531 1.21875 -3.5625 C 1.21875 -2.726562 1.453125 -2.050781 1.921875 -1.53125 C 2.410156 -0.976562 3.117188 -0.703125 4.046875 -0.703125 Z M 4.046875 -0.703125" transform="translate(177.001 209.637)"/></g></g></g><g fill="#2A4876"><g><g><path d="M 6.71875 -7.109375 L 3.84375 0 L 2.90625 0 L 0.03125 -7.109375 L 0.90625 -7.109375 L 3.375 -0.90625 L 5.84375 -7.109375 Z M 6.71875 -7.109375" transform="translate(186.115 209.637)"/></g></g></g><g fill="#2A4876"><g><g><path d="M 1.671875 -6.34375 L 1.671875 -3.953125 L 5.640625 -3.953125 L 5.640625 -3.171875 L 1.671875 -3.171875 L 1.671875 -0.78125 L 6.109375 -0.78125 L 6.109375 0 L 0.875 0 L 0.875 -7.109375 L 6.109375 -7.109375 L 6.109375 -6.34375 Z M 1.671875 -6.34375" transform="translate(198.55 209.637)"/></g></g></g><g fill="#2A4876"><g><g><path d="M 7.015625 -7.109375 L 7.015625 0 L 6.078125 0 L 1.671875 -6.015625 L 1.671875 0 L 0.875 0 L 0.875 -7.109375 L 1.8125 -7.109375 L 6.203125 -1.125 L 6.203125 -7.109375 Z M 7.015625 -7.109375" transform="translate(206.781 209.637)"/></g></g></g><g fill="#2A4876"><g><g><path d="M 1.671875 -7.109375 L 1.671875 -0.78125 L 5.5625 -0.78125 L 5.5625 0 L 0.875 0 L 0.875 -7.109375 Z M 1.671875 -7.109375" transform="translate(220.344 209.637)"/></g></g></g><g fill="#2A4876"><g><g><path d="M 1.671875 0 L 0.875 0 L 0.875 -7.109375 L 1.671875 -7.109375 Z M 1.671875 0" transform="translate(227.77 209.637)"/></g></g></g><g fill="#2A4876"><g><g><path d="M 7.015625 -7.109375 L 7.015625 0 L 6.078125 0 L 1.671875 -6.015625 L 1.671875 0 L 0.875 0 L 0.875 -7.109375 L 1.8125 -7.109375 L 6.203125 -1.125 L 6.203125 -7.109375 Z M 7.015625 -7.109375" transform="translate(232.016 209.637)"/></g></g></g><g fill="#2A4876"><g><g><path d="M 1.671875 -6.34375 L 1.671875 -3.953125 L 5.640625 -3.953125 L 5.640625 -3.171875 L 1.671875 -3.171875 L 1.671875 -0.78125 L 6.109375 -0.78125 L 6.109375 0 L 0.875 0 L 0.875 -7.109375 L 6.109375 -7.109375 L 6.109375 -6.34375 Z M 1.671875 -6.34375" transform="translate(241.591 209.637)"/></g></g></g><path stroke-linecap="round" transform="matrix(.74939 0 0 .75 43.584 207.587)" fill="none" d="M 0.497518 -0.00133022 L 95.590474 -0.00133022" stroke="#2A4876"/><path stroke-linecap="round" transform="matrix(.74939 0 0 .75 260.893 207.587)" fill="none" d="M 0.497519 -0.00133022 L 95.590476 -0.00133022" stroke="#2A4876"/></svg>