<svg width="375" height="231" viewBox="0 0 375 231" fill="none" xmlns="http://www.w3.org/2000/svg">
<path d="M102.881 17.7894C104.452 17.7894 105.819 17.9222 106.975 18.18C108.131 18.4417 109.092 18.805 109.866 19.2737C110.635 19.7347 111.209 20.2816 111.584 20.9144C111.967 21.5394 112.163 22.2191 112.163 22.9456C112.163 23.4456 112.061 23.8948 111.866 24.2894C111.667 24.6878 111.385 25.0237 111.022 25.305C110.667 25.5784 110.245 25.7894 109.756 25.9456C109.264 26.0941 108.741 26.1644 108.178 26.1644C108.178 25.4456 108.084 24.7386 107.897 24.0394C107.709 23.3323 107.401 22.6956 106.975 22.1331C106.545 21.5706 105.995 21.1175 105.319 20.7737C104.639 20.4222 103.795 20.2425 102.788 20.2425C101.057 20.2425 99.5845 20.5628 98.3657 21.1956C97.1548 21.8323 96.1704 22.7581 95.4126 23.9769C94.6509 25.1956 94.1001 26.7034 93.7563 28.4925C93.4126 30.2737 93.2407 32.3167 93.2407 34.6175C93.2407 36.6605 93.4165 38.5355 93.772 40.2425C94.1353 41.9534 94.7017 43.4144 95.4751 44.6331C96.2563 45.8519 97.2446 46.8011 98.4438 47.4769C99.6509 48.1448 101.1 48.4769 102.788 48.4769C103.913 48.4769 104.901 48.3675 105.756 48.1487C106.62 47.93 107.381 47.6448 108.038 47.2894C108.694 46.9261 109.272 46.5081 109.772 46.0394C110.28 45.5706 110.729 45.0823 111.116 44.5706C111.366 44.7386 111.573 44.9612 111.741 45.2425C111.905 45.5237 111.991 45.8987 111.991 46.3675C111.991 46.9534 111.792 47.5472 111.397 48.1487C110.999 48.7542 110.397 49.305 109.584 49.805C108.78 50.2972 107.76 50.7034 106.522 51.0237C105.28 51.3441 103.807 51.5081 102.1 51.5081C99.8071 51.5081 97.7915 51.1058 96.0532 50.305C94.3228 49.4925 92.8696 48.348 91.6938 46.8675C90.5259 45.3792 89.6392 43.598 89.0376 41.5237C88.4438 39.4417 88.147 37.1409 88.147 34.6175C88.147 32.1292 88.4595 29.8519 89.0845 27.7894C89.7173 25.7269 90.6509 23.9573 91.8813 22.4769C93.1079 21.0003 94.647 19.848 96.4907 19.0237C98.3345 18.2034 100.463 17.7894 102.881 17.7894Z" fill="#2A4876"/>
<path d="M131.426 51.055L121.519 22.6175C121.351 22.1409 121.168 21.7425 120.973 21.43C120.785 21.1097 120.558 20.8597 120.301 20.68C120.051 20.5042 119.758 20.3792 119.426 20.305C119.101 20.2347 118.715 20.1956 118.269 20.1956H117.66V18.2581H130.285V20.1956H129.238C128.308 20.1956 127.617 20.3753 127.16 20.7269C126.699 21.0706 126.473 21.6253 126.473 22.3831C126.473 22.6448 126.504 22.9105 126.566 23.18C126.637 23.4417 126.738 23.7425 126.863 24.0862L131.91 39.0081C132.367 40.3753 132.758 41.6956 133.082 42.9769C133.414 44.2503 133.711 45.4378 133.973 46.5394C134.211 45.4378 134.492 44.2659 134.816 43.0237C135.148 41.7855 135.57 40.4456 136.082 39.0081L141.144 24.4144C141.269 24.0394 141.367 23.68 141.441 23.3362C141.512 22.9925 141.551 22.6917 141.551 22.43C141.551 21.6409 141.301 21.0706 140.801 20.7269C140.301 20.3753 139.539 20.1956 138.519 20.1956H137.473V18.2581H148.66V20.1956H147.785C147.336 20.1956 146.949 20.2425 146.629 20.3362C146.305 20.4222 146.012 20.5941 145.754 20.8519C145.492 21.1136 145.246 21.4769 145.019 21.9456C144.801 22.4066 144.558 23.0081 144.301 23.7581L134.801 51.055H131.426Z" fill="#2A4876"/>
<path d="M170.231 51.055V49.1331H170.809C171.34 49.1331 171.829 49.098 172.278 49.0237C172.735 48.9417 173.137 48.7855 173.481 48.555C173.825 48.3284 174.09 47.9925 174.278 47.555C174.473 47.1175 174.575 46.5472 174.575 45.8362V23.4925C174.575 22.7737 174.473 22.2034 174.278 21.7737C174.09 21.3362 173.825 21.0042 173.481 20.7737C173.137 20.5355 172.735 20.3792 172.278 20.305C171.829 20.2347 171.34 20.1956 170.809 20.1956H170.231V18.2581H183.606V20.1956H182.997C182.485 20.1956 182.001 20.2347 181.544 20.305C181.083 20.3675 180.684 20.5159 180.34 20.7425C179.997 20.9612 179.723 21.2816 179.528 21.6956C179.329 22.1019 179.231 22.6409 179.231 23.305V48.7737H188.294C188.981 48.7737 189.563 48.6487 190.044 48.3987C190.532 48.1487 190.934 47.8284 191.247 47.43C191.559 47.0355 191.797 46.5941 191.965 46.1019C192.141 45.6019 192.262 45.1097 192.325 44.6175L192.778 41.18H195.169L194.856 51.055H170.231Z" fill="#2A4876"/>
<path d="M202.795 51.055V49.1331H203.373C203.904 49.1331 204.393 49.098 204.842 49.0237C205.299 48.9417 205.701 48.7855 206.045 48.555C206.389 48.3284 206.654 47.9925 206.842 47.555C207.037 47.1175 207.139 46.5472 207.139 45.8362V23.4925C207.139 22.7737 207.037 22.2034 206.842 21.7737C206.654 21.3362 206.389 21.0042 206.045 20.7737C205.701 20.5355 205.299 20.3792 204.842 20.305C204.393 20.2347 203.904 20.1956 203.373 20.1956H202.795V18.2581H216.17V20.1956H215.561C215.049 20.1956 214.561 20.2347 214.092 20.305C213.631 20.3792 213.232 20.5355 212.889 20.7737C212.553 21.0042 212.287 21.3362 212.092 21.7737C211.893 22.2034 211.795 22.7737 211.795 23.4925V45.8362C211.795 46.5472 211.893 47.1175 212.092 47.555C212.287 47.9925 212.553 48.3284 212.889 48.555C213.232 48.7855 213.631 48.9417 214.092 49.0237C214.561 49.098 215.049 49.1331 215.561 49.1331H216.17V51.055H202.795Z" fill="#2A4876"/>
<path d="M247.984 51.055L230.765 24.5862V45.8362C230.765 46.5472 230.863 47.1175 231.062 47.555C231.269 47.9925 231.539 48.3284 231.875 48.555C232.207 48.7855 232.601 48.9417 233.062 49.0237C233.531 49.098 234.019 49.1331 234.531 49.1331H235.14V51.055H223.609V49.1331H224.187C224.718 49.1331 225.207 49.098 225.656 49.0237C226.113 48.9417 226.515 48.7855 226.859 48.555C227.203 48.3284 227.468 47.9925 227.656 47.555C227.851 47.1175 227.953 46.5472 227.953 45.8362V23.305C227.953 22.6409 227.851 22.1019 227.656 21.6956C227.457 21.2816 227.187 20.9612 226.843 20.7425C226.5 20.5159 226.097 20.3675 225.64 20.305C225.179 20.2347 224.695 20.1956 224.187 20.1956H223.609V18.2581H232.015L248.468 43.6487V23.305C248.468 22.6409 248.363 22.1019 248.156 21.6956C247.957 21.2816 247.687 20.9612 247.343 20.7425C247 20.5159 246.597 20.3675 246.14 20.305C245.679 20.2347 245.195 20.1956 244.687 20.1956H244.093V18.2581H255.609V20.1956H255.031C254.507 20.1956 254.019 20.2347 253.562 20.305C253.101 20.3792 252.703 20.5355 252.359 20.7737C252.015 21.0042 251.742 21.3362 251.547 21.7737C251.359 22.2034 251.265 22.7737 251.265 23.4925V51.055H247.984Z" fill="#2A4876"/>
<path d="M271.61 48.7737H280.469C281.196 48.7737 281.817 48.6761 282.329 48.4769C282.848 48.2698 283.282 47.9925 283.626 47.6487C283.969 47.305 284.235 46.9066 284.422 46.4456C284.618 45.9886 284.758 45.5042 284.844 44.9925L285.157 43.0237H287.547L287.235 51.055H262.61V49.1331H263.188C263.696 49.1331 264.18 49.1019 264.641 49.0394C265.098 48.9691 265.501 48.8284 265.844 48.6175C266.188 48.3987 266.458 48.0862 266.657 47.68C266.852 47.2659 266.954 46.723 266.954 46.055V23.4925C266.954 22.7737 266.852 22.2034 266.657 21.7737C266.469 21.3362 266.204 21.0042 265.86 20.7737C265.516 20.5355 265.114 20.3792 264.657 20.305C264.208 20.2347 263.719 20.1956 263.188 20.1956H262.61V18.2581H285.751L285.985 26.2894H283.61L283.376 24.3206C283.321 23.8128 283.208 23.3284 283.032 22.8675C282.864 22.4105 282.618 22.0081 282.297 21.6644C281.973 21.3206 281.567 21.0511 281.079 20.8519C280.587 20.6566 280.001 20.555 279.313 20.555H271.61V32.7737H282.688V35.0237H271.61V48.7737Z" fill="#2A4876"/>
<path d="M136.638 58.5276L133.763 65.637H132.825L129.95 58.5276H130.825L133.294 64.7307L135.763 58.5276H136.638Z" fill="#2A4876"/>
<path d="M142.397 58.4338C143.46 58.4338 144.327 58.7893 145.007 59.4963C145.671 60.1838 146.007 61.0432 146.007 62.0745C146.007 63.1057 145.671 63.9651 145.007 64.6526C144.327 65.3713 143.46 65.7307 142.397 65.7307C141.335 65.7307 140.464 65.3713 139.788 64.6526C139.12 63.9651 138.788 63.1057 138.788 62.0745C138.788 61.0432 139.12 60.1838 139.788 59.4963C140.464 58.7893 141.335 58.4338 142.397 58.4338ZM142.397 64.9338C143.241 64.9338 143.921 64.6604 144.444 64.1057C144.952 63.5745 145.21 62.8987 145.21 62.0745C145.21 61.2542 144.952 60.5745 144.444 60.0432C143.921 59.4924 143.241 59.2151 142.397 59.2151C141.553 59.2151 140.87 59.4924 140.35 60.0432C139.839 60.5745 139.585 61.2542 139.585 62.0745C139.585 62.8987 139.839 63.5745 140.35 64.1057C140.87 64.6604 141.553 64.9338 142.397 64.9338Z" fill="#2A4876"/>
<path d="M154.046 59.2932H151.561V65.637H150.765V59.2932H148.28V58.5276H154.046V59.2932Z" fill="#2A4876"/>
<path d="M157.566 65.637H156.769V58.5276H160.175C160.894 58.5276 161.472 58.7268 161.91 59.1213C162.347 59.5198 162.566 60.0588 162.566 60.7463C162.566 61.6331 162.195 62.2385 161.456 62.5588C161.246 62.6526 161.042 62.7229 160.847 62.762L162.722 65.637H161.769L160.05 62.9026H157.566V65.637ZM157.566 62.137H160.035C160.792 62.137 161.316 61.9026 161.597 61.4338C161.71 61.2581 161.769 61.0276 161.769 60.7463C161.769 60.301 161.613 59.9456 161.3 59.6838C160.988 59.4143 160.581 59.2776 160.081 59.2776H157.566V62.137Z" fill="#2A4876"/>
<path d="M166.454 59.2932V61.6838H170.423V62.4651H166.454V64.8557H170.891V65.637H165.657V58.5276H170.891V59.2932H166.454Z" fill="#2A4876"/>
<path d="M181.048 64.9338C181.556 64.9338 182.001 64.8088 182.376 64.5588C182.759 64.301 183.048 63.9495 183.235 63.512H184.079C183.849 64.1799 183.458 64.7112 182.907 65.1057C182.333 65.5237 181.649 65.7307 180.86 65.7307C179.817 65.7307 178.974 65.3713 178.329 64.6526C177.724 63.9768 177.423 63.1213 177.423 62.0901C177.423 61.051 177.724 60.1838 178.329 59.4963C178.974 58.7893 179.817 58.4338 180.86 58.4338C181.649 58.4338 182.333 58.6448 182.907 59.0588C183.458 59.4456 183.849 59.9768 184.079 60.6526H183.235C183.048 60.2151 182.759 59.8674 182.376 59.6057C182.001 59.3479 181.556 59.2151 181.048 59.2151C180.536 59.2151 180.11 59.2893 179.767 59.4338C179.431 59.5823 179.149 59.7854 178.923 60.0432C178.454 60.5667 178.22 61.2424 178.22 62.0745C178.22 62.9104 178.454 63.5862 178.923 64.1057C179.411 64.6604 180.118 64.9338 181.048 64.9338Z" fill="#2A4876"/>
<path d="M192.834 58.5276L189.959 65.637H189.021L186.146 58.5276H187.021L189.49 64.7307L191.959 58.5276H192.834Z" fill="#2A4876"/>
<path d="M200.222 59.2932V61.6838H204.191V62.4651H200.222V64.8557H204.659V65.637H199.425V58.5276H204.659V59.2932H200.222Z" fill="#2A4876"/>
<path d="M213.797 58.5276V65.637H212.859L208.453 59.6213V65.637H207.656V58.5276H208.594L212.984 64.512V58.5276H213.797Z" fill="#2A4876"/>
<path d="M222.016 58.5276V64.8557H225.906V65.637H221.219V58.5276H222.016Z" fill="#2A4876"/>
<path d="M229.442 65.637H228.645V58.5276H229.442V65.637Z" fill="#2A4876"/>
<path d="M239.032 58.5276V65.637H238.094L233.688 59.6213V65.637H232.891V58.5276H233.828L238.219 64.512V58.5276H239.032Z" fill="#2A4876"/>
<path d="M243.263 59.2932V61.6838H247.232V62.4651H243.263V64.8557H247.7V65.637H242.466V58.5276H247.7V59.2932H243.263Z" fill="#2A4876"/>
<path d="M43.9568 63.586H115.219" stroke="#2A4876" stroke-width="0.749695" stroke-linecap="round"/>
<path d="M261.266 63.586H332.528" stroke="#2A4876" stroke-width="0.749695" stroke-linecap="round"/>
</svg>
